<?xml version="1.0" standalone="no"?>
<!DOCTYPE svg PUBLIC "-//W3C//DTD SVG 20010904//EN"
 "http://www.w3.org/TR/2001/REC-SVG-20010904/DTD/svg10.dtd">
<svg version="1.0" xmlns="http://www.w3.org/2000/svg"
 viewBox="0 0 1280.000000 1280.000000"
 preserveAspectRatio="xMidYMid meet">
<metadata>
Created by potrace 1.15, written by Peter Selinger 2001-2017
</metadata>
<g transform="translate(0.000000,1280.000000) scale(0.100000,-0.100000)"
fill="#8bc34a" stroke="none">
<path d="M4568 12343 l-116 -118 -40 -110 -41 -110 6 -120 c6 -135 -10 -240
-73 -460 l-34 -120 15 -85 c19 -107 19 -144 0 -160 -12 -10 -26 -2 -83 46 -38
33 -93 80 -123 105 -34 29 -95 64 -164 95 -90 39 -124 61 -187 118 -66 60 -83
82 -114 151 -54 120 -69 135 -177 184 l-95 43 -117 -39 -118 -38 -67 -118 -67
-117 4 -98 c6 -110 16 -132 100 -213 36 -36 75 -58 161 -95 l114 -48 90 -104
91 -104 -45 -38 -45 -39 -23 -121 -22 -121 31 -39 c17 -21 31 -41 31 -43 0 -3
-23 -20 -51 -38 -47 -30 -55 -32 -88 -22 -218 63 -317 95 -376 121 -38 17
-126 47 -195 67 -200 59 -294 101 -420 187 l-115 78 -113 20 -113 20 -29 -22
c-41 -30 -181 -233 -191 -276 -4 -21 -9 -79 -10 -130 -1 -93 -1 -94 32 -128
18 -18 29 -37 25 -41 -4 -4 -37 -6 -73 -5 -79 2 -274 -41 -296 -66 -8 -10 -35
-69 -59 -132 l-45 -115 12 -100 c10 -84 10 -108 -3 -152 -14 -49 -13 -59 12
-170 14 -65 41 -165 60 -221 30 -93 40 -110 87 -159 30 -30 88 -81 130 -113
42 -33 98 -84 125 -114 36 -41 76 -70 149 -110 55 -31 107 -59 115 -64 12 -8
8 -17 -22 -54 -21 -25 -43 -57 -49 -72 -7 -14 -15 -26 -19 -26 -4 0 -58 39
-121 86 -63 47 -132 95 -154 106 -51 27 -376 145 -433 158 -24 6 -73 31 -110
55 -77 52 -89 53 -217 25 l-90 -20 -102 -102 -101 -101 -8 -86 c-4 -47 -7
-106 -7 -131 1 -59 40 -260 55 -277 6 -7 38 -29 72 -50 33 -20 102 -63 153
-96 l91 -60 52 -121 c47 -111 58 -129 141 -221 l90 -100 -53 -6 c-51 -6 -177
11 -246 32 -19 6 -49 8 -67 5 -25 -5 -46 -1 -74 14 -34 17 -59 20 -156 20
-109 0 -118 -2 -149 -25 -37 -28 -206 -245 -206 -264 0 -14 57 -208 65 -221 3
-5 39 -37 80 -70 65 -53 82 -62 127 -67 46 -5 58 -12 94 -49 23 -24 60 -50 83
-59 94 -33 174 -91 239 -174 35 -45 68 -81 73 -81 27 0 -1 -31 -70 -78 -128
-87 -132 -93 -152 -229 l-17 -118 45 -80 c24 -44 49 -88 56 -97 10 -15 6 -24
-24 -55 -19 -21 -54 -61 -77 -89 -49 -60 -157 -129 -231 -146 -46 -10 -57 -20
-144 -117 l-94 -106 -26 -114 c-15 -62 -24 -118 -20 -125 32 -52 162 -217 191
-243 l37 -32 121 -1 c101 0 129 3 165 20 24 11 58 20 75 20 17 0 57 11 88 25
45 20 77 26 162 29 l105 4 -19 -22 c-197 -221 -195 -218 -252 -345 l-55 -123
-169 -103 c-93 -56 -172 -109 -176 -116 -4 -8 -19 -64 -34 -125 l-25 -112 38
-90 c21 -50 46 -101 54 -113 23 -32 209 -160 225 -154 7 2 25 -4 40 -15 24
-18 189 -59 236 -60 10 0 54 22 97 50 42 27 97 54 121 59 51 12 379 131 428
156 19 9 70 44 112 76 42 33 79 59 82 59 13 0 66 -91 60 -103 -17 -27 -79 -97
-87 -97 -4 0 -58 -28 -118 -62 -81 -45 -124 -77 -162 -119 -29 -31 -79 -78
-111 -102 -32 -25 -91 -77 -131 -115 l-73 -70 -37 -119 c-20 -65 -48 -168 -61
-229 -27 -126 -25 -141 32 -264 34 -74 36 -76 120 -124 64 -36 93 -47 115 -44
25 4 33 0 44 -21 7 -15 24 -32 37 -39 18 -10 219 -61 290 -74 12 -2 -1 -23
-54 -86 l-70 -82 1 -99 c1 -54 6 -113 11 -130 12 -41 153 -242 190 -269 l29
-22 113 20 113 20 116 79 c136 93 200 120 529 220 129 39 283 86 343 105 59
18 110 30 113 25 3 -5 20 -9 37 -9 18 -1 44 -11 60 -23 l27 -23 -25 -24 c-24
-22 -25 -28 -25 -140 l0 -117 43 -56 c23 -30 52 -59 64 -63 20 -8 17 -15 -59
-102 -86 -100 -119 -122 -243 -162 -56 -19 -82 -35 -131 -82 l-61 -58 -14
-121 -14 -120 68 -119 68 -118 113 -36 c63 -20 118 -36 124 -36 25 0 180 81
204 106 14 16 44 68 65 116 35 77 47 93 110 146 54 45 99 71 184 107 102 42
124 56 227 146 112 98 186 147 196 131 3 -5 0 -49 -6 -98 -10 -86 -10 -93 20
-194 79 -273 85 -305 79 -429 l-6 -115 40 -105 c22 -58 46 -116 55 -129 11
-17 13 -31 5 -57 -8 -28 -6 -37 11 -52 11 -10 50 -61 86 -113 36 -52 68 -98
72 -103 3 -4 39 6 80 23 47 19 90 30 122 30 41 0 68 10 161 60 62 32 127 74
144 92 20 20 53 82 86 161 30 71 63 135 74 142 18 13 22 11 45 -25 14 -21 47
-103 73 -182 41 -124 52 -147 84 -175 l36 -32 118 -1 c166 0 182 9 417 230
l80 75 14 114 c8 63 12 120 9 128 -3 7 9 29 27 49 17 20 47 69 65 109 l32 72
-19 103 c-10 56 -18 103 -16 105 2 1 32 -2 68 -7 l65 -10 29 -69 c16 -38 43
-89 61 -112 29 -38 33 -53 44 -157 l13 -116 71 -65 c40 -36 94 -77 120 -93 27
-15 83 -61 125 -102 67 -65 92 -82 193 -128 l115 -52 110 23 c70 15 113 29
119 39 22 35 98 124 106 124 5 0 9 -6 9 -14 0 -15 65 -77 102 -97 12 -7 68
-54 123 -104 l100 -92 114 -28 113 -28 117 117 116 116 42 113 42 112 -6 120
c-6 135 11 241 72 456 l33 116 -11 122 c-14 158 -10 162 81 85 38 -32 93 -80
123 -105 34 -29 95 -64 164 -95 90 -39 124 -61 187 -118 65 -60 83 -82 114
-151 55 -121 66 -132 173 -182 l96 -44 110 32 c60 18 117 40 126 50 9 10 42
64 74 121 l59 102 -3 94 c-1 52 -6 105 -11 117 -5 13 -36 51 -68 86 -54 58
-71 69 -177 113 l-116 49 -91 105 -91 104 45 38 45 39 23 121 22 121 -32 41
-33 41 24 18 c72 55 80 56 181 24 51 -16 158 -53 238 -81 80 -29 201 -69 270
-89 200 -59 294 -101 420 -187 l115 -78 113 -20 113 -20 29 22 c41 30 181 233
191 276 4 21 9 79 10 130 1 88 0 95 -25 121 -14 15 -26 30 -26 34 0 4 20 7 45
7 64 0 296 57 317 78 9 9 36 69 61 132 l44 115 -12 100 c-10 84 -10 108 3 152
14 49 13 59 -12 170 -14 65 -41 165 -60 221 -30 93 -40 110 -87 159 -30 30
-88 81 -130 113 -42 33 -98 84 -125 114 -36 41 -76 70 -149 110 -55 31 -107
59 -115 64 -12 8 -8 17 22 54 21 25 43 57 49 72 7 14 15 26 19 26 4 0 58 -39
121 -86 63 -47 132 -95 154 -106 51 -27 376 -145 433 -158 24 -6 73 -31 110
-55 77 -52 89 -53 217 -25 l90 20 102 102 101 101 8 86 c4 47 7 106 7 131 -1
59 -40 260 -55 277 -6 7 -38 29 -72 50 -33 20 -102 63 -153 96 l-91 60 -52
121 c-47 111 -58 129 -141 221 l-90 100 53 6 c51 6 177 -11 246 -32 19 -6 49
-8 67 -5 25 5 46 1 74 -14 34 -17 59 -20 156 -20 111 0 118 1 151 27 22 16 46
50 63 88 20 44 44 75 85 110 31 27 56 55 56 62 0 16 -57 210 -65 223 -3 5 -39
36 -79 69 -49 40 -100 71 -152 91 -43 17 -84 40 -91 50 -7 10 -30 24 -51 30
-20 7 -70 31 -109 53 -59 33 -85 57 -139 124 -36 46 -70 83 -75 83 -27 0 1 31
70 78 128 87 132 93 152 229 l17 118 -45 80 c-24 44 -49 88 -56 97 -10 15 -6
24 24 55 19 21 54 61 77 89 49 61 157 129 231 146 46 10 58 19 143 116 62 71
92 112 90 126 -1 12 11 63 27 115 17 52 27 99 23 105 -31 51 -161 218 -190
243 l-37 32 -121 1 c-101 0 -129 -3 -165 -20 -24 -11 -58 -20 -75 -20 -17 0
-57 -11 -88 -25 -45 -20 -77 -26 -162 -29 l-105 -4 19 22 c197 221 195 218
252 345 l55 123 169 103 c93 56 172 109 176 116 4 8 19 64 34 125 l25 112 -38
90 c-21 50 -46 101 -54 113 -23 32 -209 160 -225 154 -7 -2 -25 4 -40 15 -24
18 -189 59 -236 60 -10 0 -54 -22 -97 -50 -42 -27 -97 -54 -121 -59 -51 -12
-379 -131 -428 -156 -19 -9 -70 -44 -112 -76 -42 -33 -79 -59 -81 -59 -3 0
-21 22 -41 50 l-36 49 48 46 c26 25 100 75 165 111 88 50 131 81 170 124 29
32 79 79 111 103 32 25 91 77 131 115 l73 70 37 119 c20 65 48 168 61 229 27
126 25 141 -32 264 -34 74 -36 76 -120 124 -65 36 -93 47 -116 44 -24 -4 -32
0 -40 18 -17 37 -44 49 -173 78 -66 16 -132 31 -147 34 l-27 7 71 83 70 82 -1
99 c-1 54 -6 113 -11 130 -12 41 -153 242 -190 269 l-29 22 -113 -20 -113 -20
-116 -79 c-125 -86 -212 -124 -421 -186 -68 -21 -143 -45 -168 -56 -25 -10
-81 -27 -125 -38 -44 -11 -122 -34 -173 -50 -51 -16 -95 -25 -98 -20 -3 5 -20
9 -37 9 -18 1 -44 11 -60 23 l-27 23 25 24 c24 22 25 28 25 140 l0 117 -42 56
c-24 31 -51 59 -61 63 -10 3 -17 10 -15 14 2 5 38 49 80 98 l77 90 118 46
c106 41 125 52 176 104 39 39 57 66 57 82 0 14 5 68 12 120 l11 95 -67 117
-67 116 -113 36 c-63 20 -118 36 -124 36 -25 0 -180 -81 -204 -106 -14 -16
-44 -68 -65 -116 -35 -77 -47 -93 -110 -146 -54 -45 -99 -71 -185 -107 -101
-42 -124 -57 -219 -141 -104 -90 -163 -134 -184 -134 -6 0 -9 36 -7 94 3 80
-1 108 -27 197 -79 277 -84 304 -78 428 l6 115 -40 105 c-22 58 -45 115 -52
126 -8 13 -11 34 -7 57 6 30 3 41 -13 55 -11 10 -49 61 -85 113 -36 52 -68 98
-71 102 -4 4 -60 -5 -126 -21 -98 -22 -141 -39 -235 -89 -63 -33 -130 -76
-147 -94 -20 -20 -53 -82 -86 -161 -30 -71 -63 -135 -74 -142 -18 -13 -22 -11
-45 25 -14 21 -47 103 -73 182 -41 124 -52 147 -84 175 l-36 32 -118 1 c-166
0 -182 -9 -417 -230 l-80 -75 -14 -114 c-8 -63 -12 -120 -9 -128 3 -7 -9 -29
-27 -49 -17 -20 -47 -69 -65 -109 l-32 -72 19 -103 c10 -56 18 -103 16 -105
-2 -1 -32 2 -68 7 l-65 10 -29 69 c-16 38 -43 89 -61 112 -29 38 -33 53 -44
157 l-13 116 -71 65 c-40 36 -94 77 -120 93 -27 15 -83 61 -125 103 -65 63
-95 83 -189 128 l-112 53 -113 -24 c-72 -16 -117 -30 -123 -40 -22 -35 -98
-124 -106 -124 -5 0 -9 6 -9 14 0 15 -65 77 -102 97 -12 7 -68 54 -123 104
l-100 91 -107 27 c-59 15 -111 27 -115 27 -5 0 -61 -53 -125 -117z"/>
</g>
</svg>
